# xmcd CD database file
#
# Track frame offsets:
#	150
#	18304
#	31897
#	47638
#	64308
#	77723
#	90925
#	104053
#	118845
#	133183
#	156398
#	172678
#	185796
#	201220
#	219910
#	238702
#	255051
#	269820
#
# Disc length: 3852 seconds
#
# Revision: 0
# Processed by: cddbd v1.5.2PL0 Copyright (c) Steve Scherf et al.
# Submitted via: jetAudio 7
#
DISCID=fb0f0a12
DTITLE=Silviya - Damata v Cherveno
DYEAR=1900
DGENRE=World Music
TTITLE0=Ctrahotna Zhena
TTITLE1=Ne Moga Az da ti Prostya
TTITLE2=Ne mu Kazvay "da"
TTITLE3=Otkradnata Kracota
TTITLE4=Damata v Cherveno
TTITLE5=Ne Me obichash
TTITLE6=Bylgare Glava Dignale
TTITLE7=Hey Momche
TTITLE8=Iskam Te
TTITLE9=Necen Moya
TTITLE10=Supermen
TTITLE11=Otivay si
TTITLE12=Obeshtavam
TTITLE13=Ne Podabay Ryka za Razdyala
TTITLE14=Shte se Vlyubish v Men
TTITLE15=Zhena Magiya
TTITLE16=ot Obich Gorya
TTITLE17=Zapomni
EXTD=
EXTT0=
EXTT1=
EXTT2=
EXTT3=
EXTT4=
EXTT5=
EXTT6=
EXTT7=
EXTT8=
EXTT9=
EXTT10=
EXTT11=
EXTT12=
EXTT13=
EXTT14=
EXTT15=
EXTT16=
EXTT17=
PLAYORDER=
